<svg xmlns="http://www.w3.org/2000/svg" width="18.634" height="18.634" viewBox="0 0 18.634 18.634">
  <path id="ads_click_FILL0_wght400_GRAD0_opsz48_1_" data-name="ads_click_FILL0_wght400_GRAD0_opsz48 (1)" d="M12.882,18.651a5.478,5.478,0,0,1-5.219-5.494,5.471,5.471,0,0,1,5.494-5.494,5.3,5.3,0,0,1,3.8,1.511,5.363,5.363,0,0,1,1.694,3.731l-1.442-.458a4.042,4.042,0,0,0-1.374-2.438,3.952,3.952,0,0,0-2.678-.973,4.1,4.1,0,0,0-4.121,4.121,3.964,3.964,0,0,0,.973,2.667,4.02,4.02,0,0,0,2.438,1.385Zm.275,3.663a8.917,8.917,0,0,1-3.571-.721,9.143,9.143,0,0,1-4.865-4.865,9.2,9.2,0,0,1,0-7.142A9.143,9.143,0,0,1,9.586,4.721a9.2,9.2,0,0,1,7.142,0,9.143,9.143,0,0,1,4.865,4.865,8.917,8.917,0,0,1,.721,3.571q0,.206-.011.412t-.034.412l-1.328-.412v-.412A7.509,7.509,0,0,0,18.674,7.64a7.509,7.509,0,0,0-5.517-2.266A7.509,7.509,0,0,0,7.64,7.64a7.509,7.509,0,0,0-2.266,5.517A7.509,7.509,0,0,0,7.64,18.674a7.509,7.509,0,0,0,5.517,2.266h.412l.412,1.328q-.206.023-.412.034t-.412.011Zm7.554.206-3.663-3.663-.8,2.427a.345.345,0,0,1-.664-.023L13.34,13.775a.341.341,0,0,1,.435-.435l7.486,2.243a.345.345,0,0,1,.023.664l-2.427.8,3.663,3.663a.334.334,0,0,1,0,.5l-1.3,1.3a.334.334,0,0,1-.5,0Z" transform="translate(-4 -4)"/>
</svg>
