<svg xmlns="http://www.w3.org/2000/svg" width="18" height="18" viewBox="0 0 18 18">
  <path id="apps_FILL0_wght400_GRAD0_opsz48" d="M9.856,26a1.856,1.856,0,1,1,1.322-3.178A1.856,1.856,0,0,1,9.856,26ZM17,26a1.825,1.825,0,1,1,1.322-.534A1.8,1.8,0,0,1,17,26Zm7.144,0a1.825,1.825,0,1,1,1.322-.534A1.8,1.8,0,0,1,24.144,26ZM9.856,18.856a1.856,1.856,0,1,1,1.322-3.178,1.856,1.856,0,0,1-1.322,3.178Zm7.144,0a1.825,1.825,0,1,1,1.322-.534A1.8,1.8,0,0,1,17,18.856Zm7.144,0a1.825,1.825,0,1,1,1.322-.534A1.8,1.8,0,0,1,24.144,18.856ZM9.856,11.712A1.825,1.825,0,0,1,8,9.856,1.825,1.825,0,0,1,9.856,8a1.825,1.825,0,0,1,1.856,1.856,1.825,1.825,0,0,1-1.856,1.856Zm7.144,0a1.825,1.825,0,0,1-1.856-1.856,1.856,1.856,0,1,1,3.178,1.322A1.8,1.8,0,0,1,17,11.712Zm7.144,0a1.825,1.825,0,0,1-1.856-1.856,1.856,1.856,0,1,1,3.178,1.322A1.8,1.8,0,0,1,24.144,11.712Z" transform="translate(-8 -8)" />
</svg>
