<svg xmlns="http://www.w3.org/2000/svg" width="9" height="9" viewBox="0 0 9 9">
  <path id="arrow_upward_FILL0_wght400_GRAD0_opsz48" d="M4.5,9a.43.43,0,0,0,.314-.122.413.413,0,0,0,.124-.308V1.462L8.255,4.715a.429.429,0,0,0,.614,0,.41.41,0,0,0,0-.6L4.807.129a.424.424,0,0,0-.153-.1A.456.456,0,0,0,4.5,0a.436.436,0,0,0-.161.029.445.445,0,0,0-.146.1L.131,4.113a.41.41,0,0,0,0,.6.429.429,0,0,0,.614,0L4.062,1.462V8.57a.413.413,0,0,0,.124.308A.43.43,0,0,0,4.5,9Z" transform="translate(9 9) rotate(180)"/>
</svg>
