<svg xmlns="http://www.w3.org/2000/svg" width="16.2" height="18" viewBox="0 0 16.2 18">
  <path id="assignment_turned_in_FILL0_wght400_GRAD0_opsz48_1_" data-name="assignment_turned_in_FILL0_wght400_GRAD0_opsz48 (1)" d="M12.817,13.362l-2.25-2.25a.652.652,0,0,0-.945,0,.609.609,0,0,0-.191.472.738.738,0,0,0,.191.473l2.722,2.767a.589.589,0,0,0,.461.2.66.66,0,0,0,.484-.2l5.287-5.287a.684.684,0,1,0-.968-.968ZM7.35,18.65h13.5V5.15H7.35Zm0-13.5v0ZM7.35,20A1.344,1.344,0,0,1,6,18.65V5.15A1.344,1.344,0,0,1,7.35,3.8h4.613a2,2,0,0,1,.72-1.294,2.238,2.238,0,0,1,2.835,0,2,2,0,0,1,.72,1.294H20.85A1.344,1.344,0,0,1,22.2,5.15v13.5A1.344,1.344,0,0,1,20.85,20ZM14.1,4.767a.78.78,0,0,0,.551-1.339.78.78,0,1,0-1.1,1.1A.756.756,0,0,0,14.1,4.767Z" transform="translate(-6 -2)" />
</svg>
