<svg xmlns="http://www.w3.org/2000/svg" width="16.771" height="18.634" viewBox="0 0 16.771 18.634">
  <path id="calendar_month_FILL0_wght400_GRAD0_opsz48_" data-name="calendar_month_FILL0_wght400_GRAD0_opsz48 " d="M14.385,15.181a.915.915,0,1,1,.664-.268A.9.9,0,0,1,14.385,15.181Zm-3.727,0a.915.915,0,1,1,.664-.268A.9.9,0,0,1,10.659,15.181Zm7.454,0a.915.915,0,1,1,.664-.268A.9.9,0,0,1,18.112,15.181Zm-3.727,3.727a.915.915,0,1,1,.664-.268A.9.9,0,0,1,14.385,18.907Zm-3.727,0a.915.915,0,1,1,.664-.268A.9.9,0,0,1,10.659,18.907Zm7.454,0a.915.915,0,1,1,.664-.268A.9.9,0,0,1,18.112,18.907ZM7.4,22.634a1.433,1.433,0,0,1-1.4-1.4V6.8A1.433,1.433,0,0,1,7.4,5.4H8.912V4.745A.718.718,0,0,1,9.657,4a.765.765,0,0,1,.547.21.706.706,0,0,1,.221.536V5.4h7.92V4.745A.718.718,0,0,1,19.091,4a.765.765,0,0,1,.547.21.706.706,0,0,1,.221.536V5.4h1.514a1.433,1.433,0,0,1,1.4,1.4V21.237a1.433,1.433,0,0,1-1.4,1.4Zm0-1.4H21.373V11.221H7.4Zm0-11.413H21.373V6.8H7.4Zm0,0v0Z" transform="translate(-6 -4)" />
</svg>
