<svg xmlns="http://www.w3.org/2000/svg" width="16" height="16" viewBox="0 0 16 16">
  <path id="call_FILL0_wght400_GRAD0_opsz48" d="M21,22a11.987,11.987,0,0,1-5.389-1.333A18.3,18.3,0,0,1,10.8,17.2a18.3,18.3,0,0,1-3.467-4.811A11.987,11.987,0,0,1,6,7,.987.987,0,0,1,7,6h3.111a.786.786,0,0,1,.544.211.982.982,0,0,1,.3.567l.6,2.8a1.6,1.6,0,0,1-.011.567.856.856,0,0,1-.233.433L9.089,12.822a18.45,18.45,0,0,0,2.789,3.6,15.413,15.413,0,0,0,3.5,2.6l2.111-2.178A1.229,1.229,0,0,1,18,16.5a1.027,1.027,0,0,1,.578-.033l2.644.578A.971.971,0,0,1,22,18v3a.987.987,0,0,1-1,1ZM8.422,11.6l1.8-1.822L9.711,7.333H7.333a7.649,7.649,0,0,0,.267,1.9A17.912,17.912,0,0,0,8.422,11.6Zm12.244,9.067V18.289l-2.289-.467-1.756,1.844a11.091,11.091,0,0,0,1.978.689,10.429,10.429,0,0,0,2.067.311ZM16.622,19.667ZM8.422,11.6Z" transform="translate(-6 -6)" />
</svg>
