<svg xmlns="http://www.w3.org/2000/svg" width="19" height="19" viewBox="0 0 19 19">
  <path id="check_circle_FILL0_wght400_GRAD0_opsz48" d="M12.1,15.661,9.771,13.334a.711.711,0,0,0-.523-.214.813.813,0,0,0-.784.784.676.676,0,0,0,.237.523l2.9,2.9a.689.689,0,0,0,1,0l5.7-5.7a.672.672,0,0,0,.2-.523.754.754,0,0,0-.226-.523.689.689,0,0,0-.534-.238.764.764,0,0,0-.558.238ZM13.5,23a9.636,9.636,0,0,1-3.752-.724,9.195,9.195,0,0,1-5.023-5.023A9.636,9.636,0,0,1,4,13.5a9.574,9.574,0,0,1,.724-3.729A9.272,9.272,0,0,1,6.731,6.755,9.471,9.471,0,0,1,13.5,4,9.424,9.424,0,0,1,23,13.5a9.471,9.471,0,0,1-2.755,6.769,9.272,9.272,0,0,1-3.016,2.007A9.574,9.574,0,0,1,13.5,23ZM13.5,13.5Zm0,8.075A7.912,7.912,0,0,0,21.575,13.5,7.912,7.912,0,0,0,13.5,5.425,7.912,7.912,0,0,0,5.425,13.5,7.912,7.912,0,0,0,13.5,21.575Z" transform="translate(-4 -4)" />
</svg>
