<svg xmlns="http://www.w3.org/2000/svg" width="22.5" height="18" viewBox="0 0 22.5 18">
  <path id="create_new_folder_FILL0_wght400_GRAD0_opsz48" d="M18.647,21.5a.818.818,0,0,0,.844-.844V18.969h1.687a.844.844,0,1,0,0-1.687H19.491V15.594a.844.844,0,1,0-1.687,0v1.688H16.116a.844.844,0,1,0,0,1.687H17.8v1.688a.818.818,0,0,0,.844.844ZM5.738,26a1.6,1.6,0,0,1-1.181-.52,1.635,1.635,0,0,1-.506-1.167V9.688A1.635,1.635,0,0,1,4.556,8.52,1.6,1.6,0,0,1,5.738,8h7.172a1.643,1.643,0,0,1,.661.141,1.755,1.755,0,0,1,.548.366L15.3,9.688h9.563a1.785,1.785,0,0,1,1.688,1.687V24.312A1.785,1.785,0,0,1,24.862,26Zm0-16.312V24.312H24.862V11.375H14.6L12.909,9.688Zm0,0v0Z" transform="translate(-4.05 -8)" />
</svg>
