<svg xmlns="http://www.w3.org/2000/svg" width="16" height="16" viewBox="0 0 16 16">
  <path id="dashboard_customize_FILL0_wght400_GRAD0_opsz48_" data-name="dashboard_customize_FILL0_wght400_GRAD0_opsz48 " d="M6.667,13.333A.646.646,0,0,1,6,12.667v-6A.646.646,0,0,1,6.667,6h6a.646.646,0,0,1,.667.667v6a.646.646,0,0,1-.667.667Zm.667-6.022v0Zm8,6.022a.646.646,0,0,1-.667-.667v-6A.646.646,0,0,1,15.333,6h6A.646.646,0,0,1,22,6.667v6a.646.646,0,0,1-.667.667Zm1.178-6.022v0ZM6.667,22A.646.646,0,0,1,6,21.333v-6a.646.646,0,0,1,.667-.667h6a.646.646,0,0,1,.667.667v6a.646.646,0,0,1-.667.667Zm.667-5.533v0Zm11,5.533a.646.646,0,0,1-.667-.667V19H15.311a.621.621,0,0,1-.456-.189.667.667,0,0,1,.478-1.144h2.333V15.311a.621.621,0,0,1,.189-.456A.667.667,0,0,1,19,15.333v2.333h2.356a.621.621,0,0,1,.456.189A.667.667,0,0,1,21.333,19H19v2.356a.621.621,0,0,1-.189.456A.648.648,0,0,1,18.333,22ZM16,7.333V12h4.667V7.333Zm-8.667,0V12H12V7.333Zm0,8.667v4.667H12V16Z" transform="translate(-6 -6)"/>
</svg>
