<svg xmlns="http://www.w3.org/2000/svg" width="16" height="18" viewBox="0 0 16 18">
  <path id="delete_FILL0_wght400_GRAD0_opsz48" d="M10.525,24a1.538,1.538,0,0,1-1.5-1.5V8.25H8.75a.75.75,0,1,1,0-1.5H12.7A.727.727,0,0,1,13.45,6h5.1a.727.727,0,0,1,.75.75h3.95a.75.75,0,1,1,0,1.5h-.275V22.5a1.538,1.538,0,0,1-1.5,1.5Zm0-15.75V22.5h10.95V8.25Zm2.65,11.35a.75.75,0,1,0,1.5,0V11.125a.75.75,0,1,0-1.5,0Zm4.15,0a.75.75,0,1,0,1.5,0V11.125a.75.75,0,1,0-1.5,0Zm-6.8-11.35v0Z" transform="translate(-8 -6)"/>
</svg>
