<svg xmlns="http://www.w3.org/2000/svg" width="18" height="18" viewBox="0 0 18 18">
  <path id="download_FILL0_wght400_GRAD0_opsz48" d="M17,21.359a.826.826,0,0,1-.309-.056.857.857,0,0,1-.281-.2l-4.247-4.247a.778.778,0,0,1-.239-.6.878.878,0,0,1,.267-.6.849.849,0,0,1,1.209,0l2.756,2.784V8.844a.844.844,0,1,1,1.687,0v9.591l2.784-2.784a.855.855,0,1,1,1.209,1.209l-4.247,4.247a.857.857,0,0,1-.281.2.826.826,0,0,1-.309.056ZM9.688,26A1.73,1.73,0,0,1,8,24.313V21.134a.844.844,0,1,1,1.688,0v3.178H24.313V21.134a.844.844,0,1,1,1.688,0v3.178A1.73,1.73,0,0,1,24.313,26Z" transform="translate(-8 -8)" />
</svg>
