<svg xmlns="http://www.w3.org/2000/svg" width="16" height="15.475" viewBox="0 0 16 15.475">
  <path id="edit_square_FILL0_wght400_GRAD0_opsz48" d="M7.159,21.425a1.132,1.132,0,0,1-.812-.336A1.057,1.057,0,0,1,6,20.305V9.1a1.057,1.057,0,0,1,.348-.784,1.132,1.132,0,0,1,.812-.336h7.826L13.826,9.1H7.159v11.2H18.754v-6.5l1.159-1.12v7.616a1.057,1.057,0,0,1-.348.784,1.132,1.132,0,0,1-.812.336ZM12.957,14.7Zm3.517-6.571.831.784L11.8,14.22v1.605H13.44l5.527-5.339.812.784-5.507,5.339a1.209,1.209,0,0,1-.377.243,1.162,1.162,0,0,1-.454.093H11.217a.574.574,0,0,1-.415-.159.534.534,0,0,1-.164-.4V14.238a1.059,1.059,0,0,1,.1-.439,1.163,1.163,0,0,1,.251-.364Zm3.3,3.136-3.3-3.136,1.932-1.867a1.135,1.135,0,0,1,.821-.317,1.1,1.1,0,0,1,.821.336l1.623,1.587A1.1,1.1,0,0,1,22,8.666a1.009,1.009,0,0,1-.348.775Z" transform="translate(-6 -5.95)"/>
</svg>
