<svg xmlns="http://www.w3.org/2000/svg" width="19" height="19" viewBox="0 0 19 19">
  <path id="error_FILL0_wght400_GRAD0_opsz48" d="M13.6,14.616a.664.664,0,0,0,.487-.2.692.692,0,0,0,.2-.511V9.3a.646.646,0,0,0-.214-.487.7.7,0,0,0-.5-.2.69.69,0,0,0-.712.712v4.608a.646.646,0,0,0,.214.487A.733.733,0,0,0,13.6,14.616Zm-.1,3.634a.771.771,0,1,0-.558-.226A.758.758,0,0,0,13.5,18.25Zm0,4.75a9.636,9.636,0,0,1-3.752-.724,9.195,9.195,0,0,1-5.023-5.023A9.636,9.636,0,0,1,4,13.5a9.574,9.574,0,0,1,.724-3.729A9.272,9.272,0,0,1,6.731,6.755,9.471,9.471,0,0,1,13.5,4,9.424,9.424,0,0,1,23,13.5a9.471,9.471,0,0,1-2.755,6.769,9.272,9.272,0,0,1-3.016,2.007A9.574,9.574,0,0,1,13.5,23ZM13.5,13.5Zm0,8.075A7.774,7.774,0,0,0,19.2,19.2a7.774,7.774,0,0,0,2.375-5.7A7.774,7.774,0,0,0,19.2,7.8a7.774,7.774,0,0,0-5.7-2.375A7.774,7.774,0,0,0,7.8,7.8a7.774,7.774,0,0,0-2.375,5.7A7.774,7.774,0,0,0,7.8,19.2,7.774,7.774,0,0,0,13.5,21.575Z" transform="translate(-4 -4)" />
</svg>
