<svg xmlns="http://www.w3.org/2000/svg" width="18.563" height="18" viewBox="0 0 18.563 18">
  <path id="euro_FILL0_wght400_GRAD0_opsz48" d="M17.1,24a8.65,8.65,0,0,1-5.325-1.7,7.93,7.93,0,0,1-3-4.475H4.85a.75.75,0,1,1,0-1.5H8.425q-.05-.3-.075-.663T8.325,15q0-.3.025-.663t.075-.663H4.85a.75.75,0,1,1,0-1.5H8.775A8.147,8.147,0,0,1,11.813,7.65,8.664,8.664,0,0,1,17.1,6a9.33,9.33,0,0,1,2.813.413A8,8,0,0,1,22.35,7.675a.758.758,0,0,1,.313.613.9.9,0,0,1-.863.925,1.077,1.077,0,0,1-.65-.187,6.486,6.486,0,0,0-1.913-.937A7.371,7.371,0,0,0,17.1,7.775a7.029,7.029,0,0,0-4.088,1.163,5.967,5.967,0,0,0-2.337,3.238h6.5a.75.75,0,1,1,0,1.5h-6.95a3.82,3.82,0,0,0-.1.663Q10.1,14.7,10.1,15t.025.663a3.82,3.82,0,0,0,.1.662h6.95a.75.75,0,1,1,0,1.5h-6.5a5.614,5.614,0,0,0,2.4,3.263A7.3,7.3,0,0,0,17.1,22.225a7.626,7.626,0,0,0,2.163-.313A6.116,6.116,0,0,0,21.2,20.95a.954.954,0,0,1,.613-.187.808.808,0,0,1,.563.237.876.876,0,0,1,.275.7.782.782,0,0,1-.35.625,9.1,9.1,0,0,1-2.487,1.263A8.836,8.836,0,0,1,17.1,24Z" transform="translate(-4.1 -6)" />
</svg>
