<svg xmlns="http://www.w3.org/2000/svg" width="19" height="19" viewBox="0 0 19 19">
  <path id="expand_circle_down_FILL0_wght400_GRAD0_opsz48" d="M13,16.065a.689.689,0,0,0,1,0l3.111-3.111a.659.659,0,0,0,.19-.487.7.7,0,0,0-.214-.511.779.779,0,0,0-.5-.2.643.643,0,0,0-.5.2L13.5,14.545l-2.612-2.613a.659.659,0,0,0-.487-.19.7.7,0,0,0-.511.214.689.689,0,0,0,0,1ZM13.5,23a9.635,9.635,0,0,1-3.752-.724,9.195,9.195,0,0,1-5.023-5.023A9.635,9.635,0,0,1,4,13.5a9.574,9.574,0,0,1,.724-3.729A9.272,9.272,0,0,1,6.731,6.755,9.471,9.471,0,0,1,13.5,4,9.424,9.424,0,0,1,23,13.5a9.471,9.471,0,0,1-2.755,6.769,9.272,9.272,0,0,1-3.016,2.007A9.574,9.574,0,0,1,13.5,23ZM13.5,13.5Zm0,8.075A7.912,7.912,0,0,0,21.575,13.5,7.912,7.912,0,0,0,13.5,5.425,7.912,7.912,0,0,0,5.425,13.5,7.912,7.912,0,0,0,13.5,21.575Z" transform="translate(-4 -4)" />
</svg>
