<svg xmlns="http://www.w3.org/2000/svg" width="17.806" height="16" viewBox="0 0 17.806 16">
  <path id="forward_to_inbox_FILL0_wght400_GRAD0_opsz48" d="M19.914,9.29H5.29V20.473h8.387v1.29H5.29A1.323,1.323,0,0,1,4,20.473V9.29A1.323,1.323,0,0,1,5.29,8H19.914A1.323,1.323,0,0,1,21.2,9.29v6.667h-1.29Zm-.323,12.473H15.613a.645.645,0,1,1,0-1.29h3.978l-1.14-1.14a.582.582,0,0,1-.183-.452.66.66,0,0,1,.2-.452.624.624,0,0,1,.9,0l2.237,2.237a.624.624,0,0,1,0,.9l-2.237,2.237a.624.624,0,0,1-.9,0,.582.582,0,0,1-.183-.452.7.7,0,0,1,.183-.452ZM5.29,9.29v0ZM12.6,13.871,19.914,9.29v1.269l-6.968,4.366a.561.561,0,0,1-.333.108.661.661,0,0,1-.355-.108L5.29,10.559V9.29Z" transform="translate(-4 -8)"/>
</svg>
