<svg xmlns="http://www.w3.org/2000/svg" width="24.732" height="16" viewBox="0 0 24.732 16">
  <path id="group_add_FILL0_wght400_GRAD0_opsz48" d="M12.211,16.548a5.97,5.97,0,0,0,.992-1.7,5.886,5.886,0,0,0,.322-2.035,5.886,5.886,0,0,0-.322-2.035,5.97,5.97,0,0,0-.992-1.7,4.173,4.173,0,0,1,3.439.593,3.569,3.569,0,0,1,1.481,3.143,3.569,3.569,0,0,1-1.481,3.143A4.173,4.173,0,0,1,12.211,16.548Zm5,8.4a.643.643,0,0,0,.412-.271.938.938,0,0,0,.155-.554v-1.6a4.728,4.728,0,0,0-.67-2.447,5.079,5.079,0,0,0-2.319-1.906q4.457.567,6.093,1.649a3.175,3.175,0,0,1,1.636,2.705v1.649a.749.749,0,0,1-.773.773ZM21.382,17.5a.749.749,0,0,1-.773-.773v-1.8h-1.8a.773.773,0,1,1,0-1.546h1.8v-1.8a.773.773,0,1,1,1.546,0v1.8h1.8a.773.773,0,1,1,0,1.546h-1.8v1.8a.749.749,0,0,1-.773.773ZM8.115,16.677a3.706,3.706,0,0,1-3.864-3.864A3.706,3.706,0,0,1,8.115,8.948a3.706,3.706,0,0,1,3.864,3.864,3.706,3.706,0,0,1-3.864,3.864ZM.773,24.946A.749.749,0,0,1,0,24.174V22.525a2.97,2.97,0,0,1,1.752-2.731,20.389,20.389,0,0,1,3.31-1.185,12.65,12.65,0,0,1,3.053-.361,12.492,12.492,0,0,1,3.04.361,20.584,20.584,0,0,1,3.3,1.185,3.008,3.008,0,0,1,1.288,1.095,2.885,2.885,0,0,1,.489,1.636v1.649a.749.749,0,0,1-.773.773Zm7.342-9.815a2.247,2.247,0,0,0,2.319-2.319,2.247,2.247,0,0,0-2.319-2.319A2.247,2.247,0,0,0,5.8,12.813a2.247,2.247,0,0,0,2.319,2.319ZM1.546,23.4H14.684v-.876a1.533,1.533,0,0,0-.206-.773,1.4,1.4,0,0,0-.644-.567,15.908,15.908,0,0,0-3.014-1.108,12.109,12.109,0,0,0-2.705-.283,11.937,11.937,0,0,0-2.692.283A17.262,17.262,0,0,0,2.37,21.185a1.349,1.349,0,0,0-.605.554,1.531,1.531,0,0,0-.219.786ZM8.115,12.813ZM8.115,23.4Z" transform="translate(0 -8.947)" />
</svg>
