<svg xmlns="http://www.w3.org/2000/svg" width="19.613" height="18.634" viewBox="0 0 19.613 18.634">
  <path id="interests_FILL0_wght400_GRAD0_opsz48" d="M5.808,13.562a.694.694,0,0,1-.642-.378.739.739,0,0,1-.013-.755L8.906,5.68a.8.8,0,0,1,.29-.29.8.8,0,0,1,.73,0,.8.8,0,0,1,.29.29l3.752,6.749a.739.739,0,0,1-.013.755.694.694,0,0,1-.642.378ZM9.586,23.634a4.041,4.041,0,0,1-4.029-4.029A3.868,3.868,0,0,1,6.74,16.747a3.9,3.9,0,0,1,2.846-1.171,4.041,4.041,0,0,1,4.029,4.029,4.041,4.041,0,0,1-4.029,4.029Zm0-1.511a2.518,2.518,0,1,0,0-5.036,2.518,2.518,0,1,0,0,5.036ZM7.093,12.051h4.936L9.56,7.619Zm9.267,11.583a.732.732,0,0,1-.755-.755V16.332a.732.732,0,0,1,.755-.755h6.547a.732.732,0,0,1,.755.755v6.547a.732.732,0,0,1-.755.755Zm.755-1.511h5.036V17.087H17.115Zm2.518-9.065a1.242,1.242,0,0,1-.3-.038.718.718,0,0,1-.277-.138q-1.511-1.108-2.392-1.889a11.81,11.81,0,0,1-1.347-1.36A3.036,3.036,0,0,1,14.723,8.6a3.374,3.374,0,0,1-.126-.907,2.581,2.581,0,0,1,.793-1.914A2.706,2.706,0,0,1,17.367,5a2.781,2.781,0,0,1,1.259.3,2.668,2.668,0,0,1,1.007.881A2.668,2.668,0,0,1,20.64,5.3,2.781,2.781,0,0,1,21.9,5a2.706,2.706,0,0,1,1.977.781,2.581,2.581,0,0,1,.793,1.914,3.374,3.374,0,0,1-.126.907,3.036,3.036,0,0,1-.592,1.032,11.809,11.809,0,0,1-1.347,1.36q-.881.781-2.392,1.889a.718.718,0,0,1-.277.138,1.242,1.242,0,0,1-.3.038Zm0-1.486a32.545,32.545,0,0,0,2.833-2.518,2.126,2.126,0,0,0,.692-1.309,1.235,1.235,0,0,0-.327-.894,1.167,1.167,0,0,0-.881-.34,1.3,1.3,0,0,0-.642.176,4.832,4.832,0,0,0-.793.6l-.881.831-.881-.831a4.832,4.832,0,0,0-.793-.6,1.3,1.3,0,0,0-.642-.176,1.167,1.167,0,0,0-.881.34,1.235,1.235,0,0,0-.327.894A2.126,2.126,0,0,0,16.8,9.054,32.545,32.545,0,0,0,19.633,11.572ZM19.633,9.029ZM9.56,9.835ZM9.586,19.605ZM19.633,19.605Z" transform="translate(-5.056 -5)"/>
</svg>
