<svg xmlns="http://www.w3.org/2000/svg" width="24.789" height="18" viewBox="0 0 24.789 18">
  <path id="local_shipping_FILL0_wght400_GRAD0_opsz48" d="M7.183,26a3.228,3.228,0,0,1-2.352-.958,3.191,3.191,0,0,1-.972-2.366H3.69A1.683,1.683,0,0,1,2,20.986V9.69a1.621,1.621,0,0,1,.507-1.183A1.621,1.621,0,0,1,3.69,8H18.31A1.683,1.683,0,0,1,20,9.69V12.7h2.535a.871.871,0,0,1,.394.085.727.727,0,0,1,.282.254l3.408,4.535a.824.824,0,0,1,.169.507v3.746a.819.819,0,0,1-.845.845H24.789a3.191,3.191,0,0,1-.972,2.366,3.367,3.367,0,0,1-4.7,0,3.191,3.191,0,0,1-.972-2.366H10.507a3.191,3.191,0,0,1-.972,2.366A3.228,3.228,0,0,1,7.183,26Zm0-1.69a1.634,1.634,0,1,0-1.155-2.789A1.634,1.634,0,0,0,7.183,24.31ZM3.69,9.69v11.3h.62a3.732,3.732,0,0,1,1.211-1.211,3.17,3.17,0,0,1,3.282.014,3.925,3.925,0,0,1,1.225,1.2H18.31V9.69ZM21.465,24.31a1.635,1.635,0,1,0-1.155-.479A1.574,1.574,0,0,0,21.465,24.31ZM20,18.563h5.239l-3.127-4.169H20ZM11.014,15.324Z" transform="translate(-2 -8)"/>
</svg>
