<svg xmlns="http://www.w3.org/2000/svg" width="14.619" height="18" viewBox="0 0 14.619 18">
  <path id="location_on_FILL0_wght400_GRAD0_opsz48_2_" data-name="location_on_FILL0_wght400_GRAD0_opsz48 (2)" d="M15.31,12.909a1.6,1.6,0,0,0,1.131-2.73,1.6,1.6,0,0,0-2.261,2.261A1.541,1.541,0,0,0,15.31,12.909Zm0,7.561A26.753,26.753,0,0,0,19.8,15.456a7.607,7.607,0,0,0,1.451-3.963,5.946,5.946,0,0,0-1.725-4.409A5.753,5.753,0,0,0,15.31,5.371,5.753,5.753,0,0,0,11.1,7.084a5.946,5.946,0,0,0-1.725,4.409,7.5,7.5,0,0,0,1.485,3.963A29.052,29.052,0,0,0,15.31,20.47ZM15.332,22a.934.934,0,0,1-.3-.046.809.809,0,0,1-.251-.137A29.135,29.135,0,0,1,9.69,16.267,8.792,8.792,0,0,1,8,11.492a7.066,7.066,0,0,1,2.2-5.459,7.427,7.427,0,0,1,10.211,0,7.066,7.066,0,0,1,2.2,5.459,8.792,8.792,0,0,1-1.69,4.774,29.135,29.135,0,0,1-5.094,5.551.847.847,0,0,1-.24.137A.763.763,0,0,1,15.332,22ZM15.31,11.492Z" transform="translate(-8 -4)"/>
</svg>
