<svg xmlns="http://www.w3.org/2000/svg" width="14.476" height="19" viewBox="0 0 14.476 19">
  <path id="lock_FILL0_wght400_GRAD0_opsz48" d="M9.357,21A1.351,1.351,0,0,1,8,19.643V9.826A1.352,1.352,0,0,1,9.357,8.469H10.94V6.3A4.143,4.143,0,0,1,12.2,3.255a4.314,4.314,0,0,1,6.085,0A4.143,4.143,0,0,1,19.536,6.3V8.469h1.583a1.351,1.351,0,0,1,1.357,1.357v9.817A1.351,1.351,0,0,1,21.119,21Zm0-1.357H21.119V9.826H9.357Zm5.881-3.167a1.7,1.7,0,0,0,1.233-.5,1.616,1.616,0,0,0,.509-1.2,1.781,1.781,0,0,0-.509-1.233,1.648,1.648,0,0,0-2.465,0A1.781,1.781,0,0,0,13.5,14.78a1.616,1.616,0,0,0,.509,1.2A1.7,1.7,0,0,0,15.238,16.476ZM12.3,8.469h5.881V6.3a2.935,2.935,0,0,0-2.94-2.94A2.935,2.935,0,0,0,12.3,6.3ZM9.357,19.643v0Z" transform="translate(-8 -2)" />
</svg>
