<svg xmlns="http://www.w3.org/2000/svg" width="18.202" height="18" viewBox="0 0 18.202 18">
  <path id="map_FILL0_wght400_GRAD0_opsz48_" data-name="map_FILL0_wght400_GRAD0_opsz48 " d="M17.933,24.124,11.789,21.95,7.264,23.745a.807.807,0,0,1-.847-.025A.83.83,0,0,1,6,22.961V8.854a.943.943,0,0,1,.19-.581,1.162,1.162,0,0,1,.493-.379l4.6-1.618a1.723,1.723,0,0,1,1.011,0l6.143,2.149,4.5-1.795a.867.867,0,0,1,.847.038.8.8,0,0,1,.417.746V21.7a.678.678,0,0,1-.19.48,1.185,1.185,0,0,1-.468.3l-4.6,1.643a1.723,1.723,0,0,1-1.011,0Zm-.354-1.719V9.638L12.624,7.97V20.737Zm1.517,0,3.59-1.188V8.273L19.1,9.638ZM7.517,22.1l3.59-1.365V7.97L7.517,9.158ZM19.1,9.638v0ZM11.107,7.97v0Z" transform="translate(-6 -6.2)"/>
</svg>
