<svg xmlns="http://www.w3.org/2000/svg" width="10.515" height="20.416" viewBox="0 0 10.515 20.416">
  <path id="military_tech_FILL0_wght400_GRAD0_opsz48" d="M17.339,24.32a.343.343,0,0,1-.46.013.4.4,0,0,1-.145-.46l.736-2.366-1.919-1.42a.354.354,0,0,1-.131-.447.373.373,0,0,1,.368-.263h2.366l.657-2.55-3.68-2.156a2.38,2.38,0,0,1-.828-.815,2.091,2.091,0,0,1-.3-1.1V5.577A1.571,1.571,0,0,1,15.577,4h7.361a1.571,1.571,0,0,1,1.577,1.577v7.177a2.091,2.091,0,0,1-.3,1.1,2.38,2.38,0,0,1-.828.815l-3.707,2.156.683,2.55H22.7a.39.39,0,0,1,.237.71l-1.919,1.42.736,2.366a.355.355,0,0,1-.145.434.388.388,0,0,1-.46-.013L19.258,22.9ZM15.577,5.577v7.177a.558.558,0,0,0,.118.342,1.106,1.106,0,0,0,.355.289l2.524,1.393v-9.2Zm7.361,0H20.151v9.2l2.313-1.393a1.106,1.106,0,0,0,.355-.289.558.558,0,0,0,.118-.342ZM19.363,10.414ZM18.574,10.178ZM20.151,10.178Z" transform="translate(-14 -4)" />
</svg>
