<svg xmlns="http://www.w3.org/2000/svg" width="16" height="3.092" viewBox="0 0 16 3.092">
  <path id="more_horiz_FILL0_wght600_GRAD0_opsz40" d="M7.315,20.342a1.45,1.45,0,0,1-1.078-.457,1.571,1.571,0,0,1,0-2.19,1.468,1.468,0,0,1,1.078-.445A1.507,1.507,0,0,1,8.4,17.7a1.552,1.552,0,0,1-1.09,2.647Zm6.466,0a1.549,1.549,0,0,1-1.09-2.647,1.549,1.549,0,0,1,2.19,2.19A1.475,1.475,0,0,1,13.78,20.342Zm6.466,0a1.475,1.475,0,0,1-1.1-.457A1.507,1.507,0,0,1,18.7,18.8a1.475,1.475,0,0,1,.457-1.1,1.556,1.556,0,0,1,2.179,0,1.552,1.552,0,0,1-1.09,2.647Z" transform="translate(21.792 20.342) rotate(180)" />
</svg>
