<svg xmlns="http://www.w3.org/2000/svg" width="14.907" height="18.634" viewBox="0 0 14.907 18.634">
  <path id="notifications_FILL0_wght400_GRAD0_opsz48" d="M8.7,19.839a.7.7,0,1,1,0-1.4H9.957V11.314A5.653,5.653,0,0,1,11.11,7.855a4.935,4.935,0,0,1,3.04-1.945V5.235a1.144,1.144,0,0,1,.384-.885,1.386,1.386,0,0,1,1.84,0,1.144,1.144,0,0,1,.384.885V5.91a4.982,4.982,0,0,1,3.051,1.945,5.616,5.616,0,0,1,1.165,3.459v7.128h1.235a.7.7,0,1,1,0,1.4ZM15.454,12.968Zm0,9.667a1.806,1.806,0,0,1-1.3-.547,1.776,1.776,0,0,1-.559-1.316h3.727a1.869,1.869,0,0,1-1.863,1.863Zm-4.1-4.193h8.222V11.314A4.047,4.047,0,0,0,18.4,8.367a3.9,3.9,0,0,0-2.9-1.2,4.1,4.1,0,0,0-4.146,4.146Z" transform="translate(-8 -4)"/>
</svg>
