<svg xmlns="http://www.w3.org/2000/svg" width="19.204" height="18.634" viewBox="0 0 19.204 18.634">
  <path id="person_FILL0_wght400_GRAD0_opsz48_" data-name="person_FILL0_wght400_GRAD0_opsz48 " d="M17.6,17.952a4.317,4.317,0,0,1-4.5-4.5,4.317,4.317,0,0,1,4.5-4.5,4.317,4.317,0,0,1,4.5,4.5,4.317,4.317,0,0,1-4.5,4.5Zm7.8,9.632H9.8a1.793,1.793,0,0,1-1.8-1.8v-1.02a3.3,3.3,0,0,1,.57-1.95,3.66,3.66,0,0,1,1.47-1.23,22.555,22.555,0,0,1,3.856-1.35,15.587,15.587,0,0,1,3.706-.45,14.932,14.932,0,0,1,3.691.465,25.561,25.561,0,0,1,3.841,1.335,3.618,3.618,0,0,1,1.5,1.23,3.3,3.3,0,0,1,.57,1.95v1.02a1.793,1.793,0,0,1-1.8,1.8Zm-15.6-1.8H25.4v-1.02a1.644,1.644,0,0,0-.285-.915,1.807,1.807,0,0,0-.705-.645A15.934,15.934,0,0,0,20.9,21.928a15.525,15.525,0,0,0-3.3-.345,15.947,15.947,0,0,0-3.331.345A15.241,15.241,0,0,0,10.761,23.2a1.805,1.805,0,0,0-.96,1.56Zm7.8-9.632a2.617,2.617,0,0,0,2.7-2.7,2.7,2.7,0,1,0-5.4,0,2.617,2.617,0,0,0,2.7,2.7ZM17.6,13.451ZM17.6,25.784Z" transform="translate(-8 -8.95)" />
</svg>
