<svg xmlns="http://www.w3.org/2000/svg" width="21.687" height="18" viewBox="0 0 21.687 18">
  <path id="school_FILL0_wght400_GRAD0_opsz48" d="M14.045,24.4a1.831,1.831,0,0,1-.384-.038,1.251,1.251,0,0,1-.358-.141L7.414,20.995a1.584,1.584,0,0,1-.576-.563,1.5,1.5,0,0,1-.218-.794V14.414L4.034,13.006a.63.63,0,0,1-.294-.282.868.868,0,0,1,0-.768.63.63,0,0,1,.294-.282L13.3,6.6a1.621,1.621,0,0,1,.358-.154,1.466,1.466,0,0,1,.768,0,1.621,1.621,0,0,1,.358.154l10.139,5.5a.881.881,0,0,1,.307.307.762.762,0,0,1,.1.384v6.888a.768.768,0,1,1-1.536,0V13.236l-2.33,1.178v5.223a1.5,1.5,0,0,1-.218.794,1.584,1.584,0,0,1-.576.563l-5.889,3.226a1.251,1.251,0,0,1-.358.141A1.831,1.831,0,0,1,14.045,24.4Zm0-7.656,8.065-4.4L14.045,8.013,6.031,12.34Zm0,6.145,5.889-3.252v-4.3L14.788,18.1a1.251,1.251,0,0,1-.358.141,1.831,1.831,0,0,1-.384.038,1.654,1.654,0,0,1-.371-.038,1.283,1.283,0,0,1-.346-.141L8.156,15.285v4.353ZM14.071,16.744ZM14.045,19.049ZM14.045,19.049Z" transform="translate(-3.65 -6.4)" />
</svg>
