<svg xmlns="http://www.w3.org/2000/svg" width="19.027" height="19" viewBox="0 0 19.027 19">
  <path id="search_FILL0_wght400_GRAD0_opsz48_" data-name="search_FILL0_wght400_GRAD0_opsz48 " d="M23.576,24.708,17.1,18.231a5.922,5.922,0,0,1-1.881,1.088,6.651,6.651,0,0,1-2.284.39,6.691,6.691,0,0,1-4.918-2.016A6.628,6.628,0,0,1,6,12.83,6.628,6.628,0,0,1,8.016,7.966,6.66,6.66,0,0,1,12.907,5.95a6.584,6.584,0,0,1,4.851,2.016,6.878,6.878,0,0,1,1.626,7.095,6.821,6.821,0,0,1-1.129,2.016l6.53,6.477a.7.7,0,0,1,.242.551.835.835,0,0,1-.269.6.844.844,0,0,1-1.182,0ZM12.907,18.1a5.029,5.029,0,0,0,3.709-1.545,5.1,5.1,0,0,0,1.532-3.722,5.1,5.1,0,0,0-1.532-3.722,5.029,5.029,0,0,0-3.709-1.545A5.1,5.1,0,0,0,9.158,9.108,5.073,5.073,0,0,0,7.612,12.83a5.073,5.073,0,0,0,1.545,3.722A5.1,5.1,0,0,0,12.907,18.1Z" transform="translate(-6 -5.95)" />
</svg>
