<svg xmlns="http://www.w3.org/2000/svg" width="16.896" height="17.537" viewBox="0 0 16.896 17.537">
  <path id="settings_FILL0_wght300_GRAD0_opsz48" d="M15.392,22.537H12.9a.644.644,0,0,1-.438-.162.69.69,0,0,1-.231-.392l-.323-2.215a6.271,6.271,0,0,1-1.961-1.131l-2.031.946a.734.734,0,0,1-.5.012.688.688,0,0,1-.381-.312L5.792,17.068a.577.577,0,0,1-.069-.473A.662.662,0,0,1,6,16.215L7.846,14.83a4.49,4.49,0,0,1-.069-.519q-.023-.288-.023-.542,0-.231.023-.519t.069-.542L6,11.323a.662.662,0,0,1-.277-.381.577.577,0,0,1,.069-.473L7.038,8.277a.743.743,0,0,1,.381-.323.565.565,0,0,1,.473.023L9.923,8.9a6.368,6.368,0,0,1,.946-.646,5.817,5.817,0,0,1,1.015-.462l.346-2.238a.69.69,0,0,1,.231-.392A.644.644,0,0,1,12.9,5h2.492a.658.658,0,0,1,.427.162.668.668,0,0,1,.242.392l.323,2.238a7.981,7.981,0,0,1,1.027.462,4.214,4.214,0,0,1,.911.646L20.4,7.977a.6.6,0,0,1,.473-.035.688.688,0,0,1,.381.312L22.5,10.446a.636.636,0,0,1,.081.485.6.6,0,0,1-.288.392l-1.869,1.361q.046.277.069.554t.023.531q0,.231-.023.508t-.069.577l1.869,1.361a.622.622,0,0,1,.185.854L21.23,19.284a.688.688,0,0,1-.381.312.6.6,0,0,1-.473-.035l-2.054-.923a7.862,7.862,0,0,1-.923.658,3.913,3.913,0,0,1-1.015.45l-.323,2.238a.668.668,0,0,1-.242.392.658.658,0,0,1-.427.162Zm-1.269-6.161a2.611,2.611,0,0,0,1.846-4.454,2.611,2.611,0,0,0-3.692,3.692A2.514,2.514,0,0,0,14.122,16.376Zm0-1.061a1.536,1.536,0,1,1,1.1-.45,1.492,1.492,0,0,1-1.1.45ZM14.146,13.769Zm-.992,7.73h1.961l.346-2.584a5.243,5.243,0,0,0,1.373-.554,6.4,6.4,0,0,0,1.211-.923l2.4,1.038.923-1.638-2.123-1.569q.092-.415.15-.773a4.557,4.557,0,0,0,.058-.727,5.594,5.594,0,0,0-.046-.738,4.945,4.945,0,0,0-.162-.738L21.391,10.7l-.923-1.638L18.045,10.1a4.892,4.892,0,0,0-1.177-.969,3.64,3.64,0,0,0-1.431-.508l-.3-2.584H13.153l-.3,2.584a4.4,4.4,0,0,0-1.408.508,5.035,5.035,0,0,0-1.2.969L7.823,9.061,6.9,10.7l2.123,1.569a6.738,6.738,0,0,0-.15.727,5.153,5.153,0,0,0-.058.773,4.927,4.927,0,0,0,.058.761q.058.369.15.738L6.9,16.838l.923,1.638,2.4-1.038a4.967,4.967,0,0,0,1.211.935,5.831,5.831,0,0,0,1.419.542Z" transform="translate(-5.7 -5)" />
</svg>
