<svg xmlns="http://www.w3.org/2000/svg" width="18.348" height="18.634" viewBox="0 0 18.348 18.634">
  <path id="shopping_cart_FILL0_wght400_GRAD0_opsz48_" data-name="shopping_cart_FILL0_wght400_GRAD0_opsz48 " d="M8.054,22.634a1.679,1.679,0,1,1,1.178-2.869,1.6,1.6,0,0,1,.5,1.189,1.672,1.672,0,0,1-1.679,1.679Zm9.329,0a1.679,1.679,0,1,1,1.178-2.869,1.6,1.6,0,0,1,.5,1.189,1.672,1.672,0,0,1-1.679,1.679ZM6.841,7.242l2.565,5.317h6.717l2.915-5.317Zm.98,10.542A1.565,1.565,0,0,1,6.41,17.13a1.342,1.342,0,0,1,.012-1.469l1.493-2.752L4.369,5.4H3.226a.634.634,0,0,1-.478-.21.719.719,0,0,1-.2-.513.652.652,0,0,1,.2-.478.68.68,0,0,1,.5-.2H4.836a.675.675,0,0,1,.373.1.721.721,0,0,1,.257.292l.676,1.446H19.878q.746,0,.945.455a1.088,1.088,0,0,1-.128,1.015l-3.148,5.667a2.192,2.192,0,0,1-.653.688,1.563,1.563,0,0,1-.91.292H8.917L7.611,16.384H18.386a.634.634,0,0,1,.478.21.691.691,0,0,1,.2.49.678.678,0,0,1-.7.7Zm1.586-5.224h0Z" transform="translate(-2.55 -4)"/>
</svg>
