<svg xmlns="http://www.w3.org/2000/svg" width="14.4" height="18" viewBox="0 0 14.4 18">
  <path id="shopping_bag_FILL0_wght400_GRAD0_opsz48" d="M9.35,22A1.384,1.384,0,0,1,8,20.65V8.95A1.384,1.384,0,0,1,9.35,7.6h2.475V7.375A3.342,3.342,0,0,1,15.2,4a3.342,3.342,0,0,1,3.375,3.375V7.6H21.05A1.384,1.384,0,0,1,22.4,8.95v11.7A1.384,1.384,0,0,1,21.05,22Zm0-1.35h11.7V8.95H18.575v2.025a.675.675,0,1,1-1.35,0V8.95h-4.05v2.025a.675.675,0,1,1-1.35,0V8.95H9.35ZM13.175,7.6h4.05V7.375a2.025,2.025,0,1,0-4.05,0ZM9.35,20.65v0Z" transform="translate(-8 -4)"/>
</svg>
