<svg xmlns="http://www.w3.org/2000/svg" width="18" height="18" viewBox="0 0 18 18">
  <path id="task_alt_FILL0_wght400_GRAD0_opsz48" d="M21.618,10.323a10.315,10.315,0,0,1,.281,1.305A9.24,9.24,0,0,1,22,13a8.973,8.973,0,0,1-2.61,6.413,8.784,8.784,0,0,1-2.857,1.9A9.07,9.07,0,0,1,13,22a9.128,9.128,0,0,1-3.555-.686,8.711,8.711,0,0,1-4.759-4.759A9.128,9.128,0,0,1,4,13a9.07,9.07,0,0,1,.686-3.532,8.784,8.784,0,0,1,1.9-2.858A8.973,8.973,0,0,1,13,4a8.73,8.73,0,0,1,2.756.428,10.688,10.688,0,0,1,2.419,1.148A.574.574,0,0,1,18.456,6a.639.639,0,0,1-.146.5.716.716,0,0,1-.968.158,9.517,9.517,0,0,0-2.036-.945A7.314,7.314,0,0,0,13,5.35,7.5,7.5,0,0,0,5.35,13,7.5,7.5,0,0,0,13,20.65,7.5,7.5,0,0,0,20.65,13a8.174,8.174,0,0,0-.27-2.115.89.89,0,0,1,.034-.54.668.668,0,0,1,.855-.4.545.545,0,0,1,.349.383ZM11.2,16.622,8.455,13.855a.673.673,0,0,1-.2-.5.711.711,0,0,1,.225-.517.673.673,0,0,1,.495-.2.751.751,0,0,1,.518.2l2.182,2.2,8.82-8.82a.714.714,0,0,1,.5-.214.672.672,0,0,1,.517.214.708.708,0,0,1,0,1.035l-9.36,9.36a.66.66,0,0,1-.484.2A.589.589,0,0,1,11.2,16.622Z" transform="translate(-4 -4)"/>
</svg>
