<svg xmlns="http://www.w3.org/2000/svg" width="18.634" height="18.634" viewBox="0 0 18.634 18.634">
  <path id="tune_FILL0_wght400_GRAD0_opsz48_" data-name="tune_FILL0_wght400_GRAD0_opsz48 " d="M6.776,22.512a.777.777,0,1,1,0-1.553h4.84a.777.777,0,1,1,0,1.553Zm0-12.837a.777.777,0,1,1,0-1.553h9.136a.777.777,0,1,1,0,1.553Zm7.945,14.959a.752.752,0,0,1-.776-.776v-4.27a.777.777,0,1,1,1.553,0v1.372h8.36a.777.777,0,1,1,0,1.553H15.5v1.346a.752.752,0,0,1-.776.776Zm-3.106-6.418a.752.752,0,0,1-.776-.776V16.094H6.776a.777.777,0,1,1,0-1.553H10.84v-1.4a.777.777,0,1,1,1.553,0v4.3a.752.752,0,0,1-.776.776Zm3.106-2.122a.777.777,0,1,1,0-1.553h9.136a.777.777,0,1,1,0,1.553Zm4.3-4.27a.752.752,0,0,1-.776-.776V6.776a.777.777,0,1,1,1.553,0V8.122h4.063a.777.777,0,1,1,0,1.553H19.795v1.372a.752.752,0,0,1-.776.776Z" transform="translate(-6 -6)" />
</svg>
